<mxfile host="app.diagrams.net" agent="Mozilla/5.0 (Windows NT 10.0; Win64; x64) AppleWebKit/537.36 (KHTML, like Gecko) Chrome/129.0.0.0 Safari/537.36" version="24.7.17">
  <diagram name="Страница — 1" id="cKNmJmpop8p_sEvpZSMd">
    <mxGraphModel dx="1195" dy="643" grid="1" gridSize="10" guides="1" tooltips="1" connect="1" arrows="1" fold="1" page="1" pageScale="1" pageWidth="827" pageHeight="1169" math="0" shadow="0">
      <root>
        <mxCell id="0" />
        <mxCell id="1" parent="0" />
        <mxCell id="tcRCmWcNRghQxVGb4rmM-21" style="edgeStyle=orthogonalEdgeStyle;rounded=0;orthogonalLoop=1;jettySize=auto;html=1;entryX=0;entryY=0.5;entryDx=0;entryDy=0;" edge="1" parent="1" source="tcRCmWcNRghQxVGb4rmM-1" target="tcRCmWcNRghQxVGb4rmM-2">
          <mxGeometry relative="1" as="geometry" />
        </mxCell>
        <mxCell id="tcRCmWcNRghQxVGb4rmM-22" style="edgeStyle=orthogonalEdgeStyle;rounded=0;orthogonalLoop=1;jettySize=auto;html=1;entryX=0;entryY=0.5;entryDx=0;entryDy=0;" edge="1" parent="1" source="tcRCmWcNRghQxVGb4rmM-1" target="tcRCmWcNRghQxVGb4rmM-4">
          <mxGeometry relative="1" as="geometry">
            <Array as="points">
              <mxPoint x="25" y="330" />
            </Array>
          </mxGeometry>
        </mxCell>
        <mxCell id="tcRCmWcNRghQxVGb4rmM-1" value="User" style="shape=umlActor;verticalLabelPosition=bottom;verticalAlign=top;html=1;outlineConnect=0;" vertex="1" parent="1">
          <mxGeometry x="10" y="410" width="30" height="60" as="geometry" />
        </mxCell>
        <mxCell id="tcRCmWcNRghQxVGb4rmM-23" style="edgeStyle=orthogonalEdgeStyle;rounded=0;orthogonalLoop=1;jettySize=auto;html=1;entryX=0.5;entryY=0;entryDx=0;entryDy=0;" edge="1" parent="1" source="tcRCmWcNRghQxVGb4rmM-4" target="tcRCmWcNRghQxVGb4rmM-2">
          <mxGeometry relative="1" as="geometry">
            <Array as="points">
              <mxPoint x="170" y="400" />
              <mxPoint x="170" y="400" />
            </Array>
          </mxGeometry>
        </mxCell>
        <mxCell id="tcRCmWcNRghQxVGb4rmM-4" value="Register" style="ellipse;whiteSpace=wrap;html=1;" vertex="1" parent="1">
          <mxGeometry x="110" y="290" width="120" height="80" as="geometry" />
        </mxCell>
        <mxCell id="tcRCmWcNRghQxVGb4rmM-14" style="edgeStyle=orthogonalEdgeStyle;rounded=0;orthogonalLoop=1;jettySize=auto;html=1;entryX=0;entryY=0.5;entryDx=0;entryDy=0;" edge="1" parent="1" source="tcRCmWcNRghQxVGb4rmM-8" target="tcRCmWcNRghQxVGb4rmM-9">
          <mxGeometry relative="1" as="geometry">
            <Array as="points">
              <mxPoint x="420" y="440" />
              <mxPoint x="420" y="440" />
            </Array>
          </mxGeometry>
        </mxCell>
        <mxCell id="tcRCmWcNRghQxVGb4rmM-35" style="edgeStyle=orthogonalEdgeStyle;rounded=0;orthogonalLoop=1;jettySize=auto;html=1;entryX=0.5;entryY=1;entryDx=0;entryDy=0;" edge="1" parent="1" source="tcRCmWcNRghQxVGb4rmM-8" target="tcRCmWcNRghQxVGb4rmM-31">
          <mxGeometry relative="1" as="geometry" />
        </mxCell>
        <mxCell id="tcRCmWcNRghQxVGb4rmM-62" style="edgeStyle=orthogonalEdgeStyle;rounded=0;orthogonalLoop=1;jettySize=auto;html=1;entryX=0.5;entryY=0;entryDx=0;entryDy=0;" edge="1" parent="1" source="tcRCmWcNRghQxVGb4rmM-8" target="tcRCmWcNRghQxVGb4rmM-10">
          <mxGeometry relative="1" as="geometry" />
        </mxCell>
        <mxCell id="tcRCmWcNRghQxVGb4rmM-8" value="Layout" style="ellipse;whiteSpace=wrap;html=1;" vertex="1" parent="1">
          <mxGeometry x="270" y="400" width="120" height="80" as="geometry" />
        </mxCell>
        <mxCell id="tcRCmWcNRghQxVGb4rmM-52" style="edgeStyle=orthogonalEdgeStyle;rounded=0;orthogonalLoop=1;jettySize=auto;html=1;entryX=0;entryY=0.5;entryDx=0;entryDy=0;" edge="1" parent="1" source="tcRCmWcNRghQxVGb4rmM-9" target="tcRCmWcNRghQxVGb4rmM-15">
          <mxGeometry relative="1" as="geometry" />
        </mxCell>
        <mxCell id="tcRCmWcNRghQxVGb4rmM-9" value="Play" style="ellipse;whiteSpace=wrap;html=1;" vertex="1" parent="1">
          <mxGeometry x="430" y="400" width="120" height="80" as="geometry" />
        </mxCell>
        <mxCell id="tcRCmWcNRghQxVGb4rmM-34" style="edgeStyle=orthogonalEdgeStyle;rounded=0;orthogonalLoop=1;jettySize=auto;html=1;entryX=0.5;entryY=1;entryDx=0;entryDy=0;" edge="1" parent="1" source="tcRCmWcNRghQxVGb4rmM-10" target="tcRCmWcNRghQxVGb4rmM-2">
          <mxGeometry relative="1" as="geometry" />
        </mxCell>
        <mxCell id="tcRCmWcNRghQxVGb4rmM-10" value="Logout" style="ellipse;whiteSpace=wrap;html=1;" vertex="1" parent="1">
          <mxGeometry x="270" y="510" width="120" height="80" as="geometry" />
        </mxCell>
        <mxCell id="tcRCmWcNRghQxVGb4rmM-53" style="edgeStyle=orthogonalEdgeStyle;rounded=0;orthogonalLoop=1;jettySize=auto;html=1;entryX=0.5;entryY=0;entryDx=0;entryDy=0;" edge="1" parent="1" source="tcRCmWcNRghQxVGb4rmM-15" target="tcRCmWcNRghQxVGb4rmM-28">
          <mxGeometry relative="1" as="geometry" />
        </mxCell>
        <mxCell id="tcRCmWcNRghQxVGb4rmM-15" value="Choose pairCount&lt;div&gt;Start&lt;/div&gt;" style="ellipse;whiteSpace=wrap;html=1;" vertex="1" parent="1">
          <mxGeometry x="590" y="400" width="120" height="80" as="geometry" />
        </mxCell>
        <mxCell id="tcRCmWcNRghQxVGb4rmM-56" style="edgeStyle=orthogonalEdgeStyle;rounded=0;orthogonalLoop=1;jettySize=auto;html=1;entryX=1;entryY=0.5;entryDx=0;entryDy=0;" edge="1" parent="1" source="tcRCmWcNRghQxVGb4rmM-17" target="tcRCmWcNRghQxVGb4rmM-15">
          <mxGeometry relative="1" as="geometry">
            <Array as="points">
              <mxPoint x="810" y="440" />
            </Array>
          </mxGeometry>
        </mxCell>
        <mxCell id="tcRCmWcNRghQxVGb4rmM-17" value="End" style="ellipse;whiteSpace=wrap;html=1;" vertex="1" parent="1">
          <mxGeometry x="750" y="510" width="120" height="80" as="geometry" />
        </mxCell>
        <mxCell id="tcRCmWcNRghQxVGb4rmM-24" style="edgeStyle=orthogonalEdgeStyle;rounded=0;orthogonalLoop=1;jettySize=auto;html=1;entryX=0;entryY=0.5;entryDx=0;entryDy=0;" edge="1" parent="1" source="tcRCmWcNRghQxVGb4rmM-2" target="tcRCmWcNRghQxVGb4rmM-8">
          <mxGeometry relative="1" as="geometry" />
        </mxCell>
        <mxCell id="tcRCmWcNRghQxVGb4rmM-2" value="Login" style="ellipse;whiteSpace=wrap;html=1;" vertex="1" parent="1">
          <mxGeometry x="110" y="400" width="120" height="80" as="geometry" />
        </mxCell>
        <mxCell id="tcRCmWcNRghQxVGb4rmM-54" style="edgeStyle=orthogonalEdgeStyle;rounded=0;orthogonalLoop=1;jettySize=auto;html=1;entryX=1;entryY=0.5;entryDx=0;entryDy=0;" edge="1" parent="1" source="tcRCmWcNRghQxVGb4rmM-28" target="tcRCmWcNRghQxVGb4rmM-30">
          <mxGeometry relative="1" as="geometry" />
        </mxCell>
        <mxCell id="tcRCmWcNRghQxVGb4rmM-28" value="Game" style="ellipse;whiteSpace=wrap;html=1;" vertex="1" parent="1">
          <mxGeometry x="590" y="510" width="120" height="80" as="geometry" />
        </mxCell>
        <mxCell id="tcRCmWcNRghQxVGb4rmM-55" style="edgeStyle=orthogonalEdgeStyle;rounded=0;orthogonalLoop=1;jettySize=auto;html=1;entryX=0.5;entryY=1;entryDx=0;entryDy=0;" edge="1" parent="1" source="tcRCmWcNRghQxVGb4rmM-30" target="tcRCmWcNRghQxVGb4rmM-17">
          <mxGeometry relative="1" as="geometry">
            <Array as="points">
              <mxPoint x="490" y="610" />
              <mxPoint x="810" y="610" />
            </Array>
          </mxGeometry>
        </mxCell>
        <mxCell id="tcRCmWcNRghQxVGb4rmM-30" value="&lt;div&gt;Finish&lt;/div&gt;New Record" style="ellipse;whiteSpace=wrap;html=1;" vertex="1" parent="1">
          <mxGeometry x="430" y="510" width="120" height="80" as="geometry" />
        </mxCell>
        <mxCell id="tcRCmWcNRghQxVGb4rmM-58" style="edgeStyle=orthogonalEdgeStyle;rounded=0;orthogonalLoop=1;jettySize=auto;html=1;entryX=0;entryY=0.5;entryDx=0;entryDy=0;" edge="1" parent="1" source="tcRCmWcNRghQxVGb4rmM-31" target="tcRCmWcNRghQxVGb4rmM-57">
          <mxGeometry relative="1" as="geometry" />
        </mxCell>
        <mxCell id="tcRCmWcNRghQxVGb4rmM-31" value="Records" style="ellipse;whiteSpace=wrap;html=1;" vertex="1" parent="1">
          <mxGeometry x="270" y="290" width="120" height="80" as="geometry" />
        </mxCell>
        <mxCell id="tcRCmWcNRghQxVGb4rmM-60" style="edgeStyle=orthogonalEdgeStyle;rounded=0;orthogonalLoop=1;jettySize=auto;html=1;entryX=0;entryY=0.5;entryDx=0;entryDy=0;" edge="1" parent="1" source="tcRCmWcNRghQxVGb4rmM-57" target="tcRCmWcNRghQxVGb4rmM-59">
          <mxGeometry relative="1" as="geometry" />
        </mxCell>
        <mxCell id="tcRCmWcNRghQxVGb4rmM-57" value="Choose:&lt;div&gt;(All or mine, orderBy,&lt;/div&gt;&lt;div&gt;pairCount)&lt;/div&gt;&lt;div&gt;Get Records&lt;/div&gt;" style="ellipse;whiteSpace=wrap;html=1;" vertex="1" parent="1">
          <mxGeometry x="430" y="290" width="120" height="80" as="geometry" />
        </mxCell>
        <mxCell id="tcRCmWcNRghQxVGb4rmM-59" value="Table&lt;div&gt;(10 rows max)&lt;/div&gt;" style="ellipse;whiteSpace=wrap;html=1;" vertex="1" parent="1">
          <mxGeometry x="590" y="290" width="120" height="80" as="geometry" />
        </mxCell>
      </root>
    </mxGraphModel>
  </diagram>
</mxfile>
